 <!--Created for free with Tennessine's Flag Designer at https://tennessine.co.uk/flags/-->
<!DOCTYPE svg PUBLIC "-//W3C//DTD SVG 1.1//EN" "http://www.w3.org/Graphics/SVG/1.1/DTD/svg11.dtd">
<svg class="svg faded fadein" xmlns="http://www.w3.org/2000/svg" xmlns:xlink="http://www.w3.org/1999/xlink" width="1230" height="753.867" viewBox="0 0 100 61.29" id="svg"><g><g><path d="M0,0L100,0L100,61.29L0,61.29Z" fill="rgb(247,2,2)"/></g></g><g class="svg-group-clickable" transform="rotate(0,50.00032043457031,30.645276069641113)"><g><g><g transform="translate(35,11.894999999999873) scale(0.08910531928952865,0.08928647333907273)"><path d="m269.36 116.99c-25.056 14.858-45.761 36.278-59.581 62 0 0 42.711 23.407 42.198 72.926-0.0362 3.912-0.34125 7.6419-0.82612 11.212-5.0729 75.046-66.982 133.89-143.35 133.89-10.016 0-19.788-1.0388-29.229-2.9845 25.986 16.428 56.757 25.966 89.772 25.966 92.972 0 168.34-75.373 168.34-168.35 0-55.062-26.447-103.95-67.327-134.66z" fill="rgb(0,0,0)"/><path d="m107.8 389.8c60.062 0 111.56-38.482 130.23-92.198-15.329 22.591-37.809 31.495-37.809 31.495-11.139-22.452-17.401-47.755-17.401-74.516 0-60.236 31.715-113.06 79.359-142.69-4e-3 -6e-3 -7e-3 -6e-3 -7e-3 -6e-3 16.006-9.9494 33.786-17.319 52.79-21.426 0 0-44.604-20.555-105.83-7.9004 0 0-11.669-55.669-40.057-81.328l-0.88251-1.2275-0.83324 1.2275c-28.392 25.659-40.061 81.328-40.061 81.328-61.23-12.655-105.83 7.9004-105.83 7.9004 19.056 4.1205 36.878 11.519 52.922 21.503 0 0-7e-3 6e-3 -0.0137 0.0125 47.57 29.648 79.233 82.43 79.233 142.61 0 26.76-6.2653 52.064-17.4 74.516 0 0-51.162-20.227-51.754-77.18-0.51262-49.519 42.202-72.926 42.202-72.926-13.796-25.673-34.445-47.058-59.435-61.917-40.817 30.721-67.219 79.564-67.219 134.58 0 52.42 23.961 99.241 61.523 130.12 14.461 5.18 30.03 8.0324 46.277 8.0324z" fill="rgb(0,0,0)"/></g></g></g></g><defs id="font-data"><style xmlns="http://www.w3.org/1999/xhtml">svg * { }
.svg-group-clickable { cursor: pointer; }
svg &gt; g &gt; g { transform-origin: left top 0px; transform-box: fill-box; }
.faded { opacity: 0.75; }
.fadein { opacity: 1; transition: opacity 0.3s ease 0s; }
</style></defs></svg>