 <!--Created for free with Tennessine's Flag Designer at https://tennessine.co.uk/flags/-->
<!DOCTYPE svg PUBLIC "-//W3C//DTD SVG 1.1//EN" "http://www.w3.org/Graphics/SVG/1.1/DTD/svg11.dtd">
<svg class="svg faded fadein" xmlns="http://www.w3.org/2000/svg" xmlns:xlink="http://www.w3.org/1999/xlink" width="1177.4411279436029" height="785" viewBox="0 0 100 66.67" id="svg"><g><g><path d="M0,0L100,0L100,66.67L0,66.67Z" fill="rgb(255,255,255)"/></g></g><g transform="rotate(0.0000,50,16.667499542236328)" class="svg-group-clickable"><g><path d="M0,0L100,0L100,33.335L0,33.335Z" fill="rgb(0,0,0)"/></g></g><g transform="rotate(0.0000,50,50.002498626708984)" class="svg-group-clickable"><g><path d="M0,33.335L100,33.335L100,66.67L0,66.67Z" fill="rgb(255,255,255)"/></g></g><g transform="rotate(0.0000,25,33.334999084472656)" class="svg-group-clickable"><g><path d="M0.00,0.00L50.00,33.34L0.00,66.67" fill="rgb(77,170,80)"/></g></g><g transform="rotate(0.0000,50,33.24499988555908)" class="svg-group-clickable"><g><path d="M50,33.335L50.00,23.33L50.70,29.58L53.61,24.01L52.01,30.09L56.74,25.94L53.05,31.03L58.95,28.88L53.67,32.29L59.96,32.41L53.80,33.69L59.62,36.07L53.42,35.04L57.98,39.36L52.57,36.16L55.26,41.84L51.38,36.90L51.84,43.16L50.00,37.15L48.16,43.16L48.62,36.90L44.74,41.84L47.43,36.16L42.02,39.36L46.58,35.04L40.38,36.07L46.20,33.69L40.04,32.41L46.33,32.29L41.05,28.88L46.95,31.03L43.26,25.94L47.99,30.09L46.39,24.01L49.30,29.58L50.00,23.33L50.70,29.58" fill="rgb(239,51,64)"/></g></g><defs id="font-data"><style xmlns="http://www.w3.org/1999/xhtml">svg * { }
.svg-group-clickable { cursor: pointer; }
svg &gt; g &gt; g { transform-origin: left top 0px; transform-box: fill-box; }
.faded { opacity: 0.75; }
.fadein { opacity: 1; transition: opacity 0.3s ease 0s; }
</style></defs></svg>