 <!--Created for free with Tennessine's Flag Designer at https://tennessine.co.uk/flags/-->
<!DOCTYPE svg PUBLIC "-//W3C//DTD SVG 1.1//EN" "http://www.w3.org/Graphics/SVG/1.1/DTD/svg11.dtd">
<svg class="svg faded fadein" xmlns="http://www.w3.org/2000/svg" xmlns:xlink="http://www.w3.org/1999/xlink" width="1230" height="753.867" viewBox="0 0 100 61.29" id="svg" style=""><g><g><path d="M0,0L100,0L100,61.29L0,61.29Z" fill="rgb(101,14,253)"/></g></g><g class="svg-group-clickable" transform="rotate(0,50.114511489868164,30.875325202941895)"><g><g><g transform="translate(30,11.225000000000001) scale(2.297934988822348,2.305151701830302)"><path d="m5.8377 3.8061a3 3 0 1 1 5.8314 0 8.443 8.443 0 0 1-3.3792 4.94 8.6818 8.6818 0 0 0-0.94353-1.786 6.443 6.443 0 0 0 2.3789-3.6248 1 1 0 1 0-1.9438 0 6.443 6.443 0 0 0 0.82915 1.9471 6.2041 6.2041 0 0 1-1.407 1.4863 8.443 8.443 0 0 1-1.366-2.9626z" fill="rgb(255,255,255)"/><path d="m8.0024 15.091a3 3 0 1 1-4.7177-3.4276 8.443 8.443 0 0 1 5.6375-2.0104 8.6818 8.6818 0 0 0-0.28643 1.9995 6.443 6.443 0 0 0-4.0552 1.5343 1 1 0 1 0 1.5726 1.1425 6.443 6.443 0 0 0 0.47367-2.0626 6.2041 6.2041 0 0 1 2.0119-0.37542 8.443 8.443 0 0 1-0.63627 3.1997z" fill="rgb(255,255,255)"/><path d="m2.8206 10.235a3 3 0 1 1 1.802-5.546 8.443 8.443 0 0 1 3.654 4.7403 8.6818 8.6818 0 0 0-1.9901 0.34546 6.443 6.443 0 0 0-2.7123-3.3826 1 1 0 1 0-0.60067 1.8487 6.443 6.443 0 0 0 2.108-0.18689 6.2041 6.2041 0 0 1 0.97875 1.7974 8.443 8.443 0 0 1-3.2397 0.38363z" fill="rgb(255,255,255)"/><path d="m14.222 11.664a3 3 0 1 1-4.7177 3.4276 8.443 8.443 0 0 1-0.16989-5.9828 8.6818 8.6818 0 0 0 1.8131 0.89027 6.443 6.443 0 0 0 0.20608 4.3308 1 1 0 1 0 1.5726-1.1425 6.443 6.443 0 0 0-1.8153-1.0879 6.2041 6.2041 0 0 1 0.26466-2.0294 8.443 8.443 0 0 1 2.8465 1.5939z" fill="rgb(255,255,255)"/><path d="m12.884 4.689a3 3 0 1 1 1.802 5.546 8.443 8.443 0 0 1-5.7425-1.6872 8.6818 8.6818 0 0 0 1.407-1.4492 6.443 6.443 0 0 0 4.1825 1.1423 1 1 0 1 0-0.60067-1.8487 6.443 6.443 0 0 0-1.5956 1.3903 6.2041 6.2041 0 0 1-1.8483-0.87883 8.443 8.443 0 0 1 2.3955-2.2146z" fill="rgb(255,255,255)"/></g></g></g></g><defs id="font-data"><style xmlns="http://www.w3.org/1999/xhtml">svg * { }
.svg-group-clickable { cursor: pointer; }
svg &gt; g &gt; g { transform-origin: left top 0px; transform-box: fill-box; }
.faded { opacity: 0.75; }
.fadein { opacity: 1; transition: opacity 0.3s ease 0s; }
</style></defs></svg>