 <!--Created for free with Tennessine's Flag Designer at https://tennessine.co.uk/flags/-->
<!DOCTYPE svg PUBLIC "-//W3C//DTD SVG 1.1//EN" "http://www.w3.org/Graphics/SVG/1.1/DTD/svg11.dtd">
<svg class="svg faded fadein" xmlns="http://www.w3.org/2000/svg" xmlns:xlink="http://www.w3.org/1999/xlink" width="1230" height="753.867" viewBox="0 0 100 61.29" id="svg"><g><g><path d="M0,0L100,0L100,61.29L0,61.29Z" fill="rgb(255,255,255)"/></g></g><g class="svg-group-clickable" transform="rotate(0,49.998416900634766,30.649999618530273)"><g><path d="M31.463414634146346 30.65a 18.536585365853654 18.536585365853654 0 1 0 37.07 0a 18.536585365853654 18.536585365853654 0 1 0 -37.07 0 ZM31.463414634146346 30.65a 16.68292682926829 16.68292682926829 0 1 0 33.37 0a 16.68292682926829 16.68292682926829 0 1 0 -33.37 0 Z" fill-rule="evenodd" fill="rgb(255,203,33)"/></g></g><g class="svg-group-clickable" transform="rotate(0,50,30.34000015258789)"><g><path d="M50,30.645L50.00,20.64L51.31,27.06L56.43,22.98L53.31,28.73L59.85,28.91L53.76,31.31L58.66,35.64L52.46,33.57L53.42,40.04L50.00,34.46L46.58,40.04L47.54,33.57L41.34,35.65L46.24,31.31L40.15,28.91L46.69,28.73L43.57,22.98L48.69,27.06L50.00,20.64L51.31,27.06" fill="rgb(0,0,0)"/></g></g><g class="svg-group-clickable" transform="rotate(0,50,5.430894374847412)"><g><path d="M0,0L100,0L100,10.861788617886182L0,10.861788617886182Z" fill="rgb(255,33,33)"/></g></g><g class="svg-group-clickable" transform="rotate(0,50,55.85910606384277)"><g><path d="M0,50.42821138211382L100,50.42821138211382L100,61.29L0,61.29Z" fill="rgb(255,33,33)"/></g></g><defs id="font-data"><style xmlns="http://www.w3.org/1999/xhtml">svg * { }
.svg-group-clickable { cursor: pointer; }
svg &gt; g &gt; g { transform-origin: left top 0px; transform-box: fill-box; }
.faded { opacity: 0.75; }
.fadein { opacity: 1; transition: opacity 0.3s ease 0s; }
</style></defs></svg>